<?xml version="1.0" encoding="UTF-8" standalone="no"?>
<!DOCTYPE svg PUBLIC "-//W3C//DTD SVG 1.1//EN" "http://www.w3.org/Graphics/SVG/1.1/DTD/svg11.dtd">
<svg width="100%" height="100%" viewBox="0 0 48 48" version="1.1" xmlns="http://www.w3.org/2000/svg" xmlns:xlink="http://www.w3.org/1999/xlink" xml:space="preserve" xmlns:serif="http://www.serif.com/" style="fill-rule:evenodd;clip-rule:evenodd;stroke-linejoin:round;stroke-miterlimit:2;">
    <path d="M48,12C48,5.377 42.623,0 36,0L12,0C5.377,0 0,5.377 0,12L0,36C0,42.623 5.377,48 12,48L36,48C42.623,48 48,42.623 48,36L48,12Z" style="fill:rgb(94,194,251);"/>
    <g id="four-leaf-clover" transform="matrix(0.655735,0,0,0.655735,24,24)">
        <g transform="matrix(1,0,0,1,-32,-32)">
            <circle cx="32" cy="31" r="2.8" style="fill:white;"/>
            <path d="M3.8,40C-2.1,49.8 8.1,52.8 12.6,49.5C9.2,54.5 12.5,63.9 22.3,58.2C33.2,51.8 30.2,33.7 30.8,31.6C29,31.9 10.1,29.5 3.8,40" style="fill:white;fill-rule:nonzero;"/>
            <path d="M12.6,49.5C14,47.9 15.5,46.4 16.9,44.8L21.4,40.3C22.9,38.8 24.4,37.3 26,35.9L28.3,33.7L30.7,31.6L28.6,34L26.4,36.3L21.9,40.8C20.4,42.3 18.9,43.8 17.3,45.2C15.8,46.7 14.3,48.1 12.6,49.5" style="fill:white;fill-rule:nonzero;"/>
            <path d="M60.2,22C66.1,12.2 55.9,9.2 51.4,12.5C54.8,7.5 51.5,-1.9 41.7,3.8C30.8,10.2 33.8,28.3 33.2,30.4C35,30.1 53.9,32.5 60.2,22" style="fill:white;fill-rule:nonzero;"/>
            <path d="M51.4,12.5C50,14.1 48.5,15.6 47.1,17.2L42.6,21.7C41.1,23.2 39.6,24.7 38,26.1L35.7,28.3L33.3,30.4L35.4,28L37.6,25.7L42.1,21.2C43.6,19.7 45.1,18.2 46.7,16.8C48.2,15.3 49.7,13.9 51.4,12.5" style="fill:white;fill-rule:nonzero;"/>
            <path d="M22.3,3.8C12.3,-2 9.3,8 12.6,12.5C7.6,9.2 -2,12.4 3.8,22C10.3,32.7 28.7,29.8 30.8,30.3C30.5,28.6 33,10 22.3,3.8" style="fill:white;fill-rule:nonzero;"/>
            <path d="M12.6,12.5C14.2,13.9 15.8,15.3 17.3,16.7C18.9,18.1 20.4,19.6 21.9,21.1L26.4,25.6L28.6,27.9L30.7,30.3L28.3,28.2L26,26.1C24.4,24.7 22.9,23.2 21.4,21.7L16.9,17.2C15.5,15.6 14,14.1 12.6,12.5" style="fill:white;fill-rule:nonzero;"/>
            <path d="M41.7,58.2C51.7,64 54.7,54 51.4,49.5C56.5,52.8 66,49.6 60.2,40C53.7,29.3 35.3,32.2 33.2,31.7C33.5,33.4 31,52 41.7,58.2" style="fill:white;fill-rule:nonzero;"/>
            <g>
                <path d="M51.4,49.5C49.8,48.1 48.2,46.7 46.7,45.3C45.1,43.9 43.6,42.4 42.1,40.9L37.6,36.4L35.4,34L33.3,31.6L35.7,33.7L38,35.9C39.6,37.3 41.1,38.8 42.6,40.3L47.1,44.8C48.5,46.4 50,47.9 51.4,49.5" style="fill:white;fill-rule:nonzero;"/>
                <path d="M32,36.8L34.5,59.5C34.6,60.8 33.6,61.9 32.3,62C30.9,62.1 29.7,61.2 29.5,59.9L29.5,59.4L32,36.8" style="fill:white;fill-rule:nonzero;"/>
            </g>
        </g>
    </g>
</svg>
