<svg xmlns="http://www.w3.org/2000/svg" xmlns:xlink="http://www.w3.org/1999/xlink" width="16" height="16" preserveAspectRatio="xMidYMid meet" viewBox="0 0 16 16" style="-ms-transform: rotate(360deg); -webkit-transform: rotate(360deg); transform: rotate(360deg);"><g fill="none"><path d="M3 3a2 2 0 1 1 4 0a2 2 0 0 1-4 0z" fill="#626262"/><path d="M9.779 4.584l.042.032a2 2 0 1 0-.042-.032z" fill="#626262"/><path d="M6.268 6A2 2 0 1 1 9.73 7.998A2 2 0 0 1 6.268 6z" fill="#626262"/><path d="M2.5 6h2.67c-.11.313-.17.65-.17 1c0 .768.289 1.47.764 2H5.5a2.501 2.501 0 0 0-2.355 1.658a3.733 3.733 0 0 1-.933-.543C1.46 9.51 1 8.616 1 7.5A1.5 1.5 0 0 1 2.5 6z" fill="#626262"/><path d="M10.5 9c1.085 0 2.009.691 2.354 1.658c.34-.139.655-.32.934-.543C14.54 9.51 15 8.616 15 7.5A1.5 1.5 0 0 0 13.5 6h-2.67c.11.313.17.65.17 1a2.99 2.99 0 0 1-.764 2h.264z" fill="#626262"/><path d="M11.887 10.928c.073.176.113.37.113.572c0 1.116-.459 2.01-1.212 2.615C10.047 14.71 9.053 15 8 15c-1.053 0-2.047-.29-2.788-.885C4.46 13.51 4 12.616 4 11.5A1.496 1.496 0 0 1 5.5 10h5a1.5 1.5 0 0 1 1.387.928z" fill="#626262"/></g><rect x="0" y="0" width="16" height="16" fill="rgba(0, 0, 0, 0)" /></svg>