<?xml version="1.0" encoding="UTF-8" standalone="no"?>
<!DOCTYPE svg PUBLIC "-//W3C//DTD SVG 1.1//EN" "http://www.w3.org/Graphics/SVG/1.1/DTD/svg11.dtd">
<svg width="100%" height="100%" viewBox="0 0 48 48" version="1.1" xmlns="http://www.w3.org/2000/svg" xmlns:xlink="http://www.w3.org/1999/xlink" xml:space="preserve" xmlns:serif="http://www.serif.com/" style="fill-rule:evenodd;clip-rule:evenodd;stroke-linejoin:round;stroke-miterlimit:2;">
    <path d="M48,12C48,5.377 42.623,0 36,0L12,0C5.377,0 0,5.377 0,12L0,36C0,42.623 5.377,48 12,48L36,48C42.623,48 48,42.623 48,36L48,12Z" style="fill:rgb(94,194,251);"/>
    <g id="grav" transform="matrix(1.25,0,0,1.25,24,24)">
        <g transform="matrix(1,0,0,1,-16,-16)">
            <path d="M16,0C7.161,0 0,7.161 0,16C0,24.839 7.161,32 16,32C24.839,32 32,24.839 32,16C32,7.161 24.839,0 16,0ZM24.651,18.62C22.984,17.521 22.031,16.589 21.198,14.917C20.63,16.063 19.307,17.766 17.068,19.105C15.948,22.584 10.641,29.246 8.917,28.282C8.412,28.022 8.318,27.641 8.427,27.261C8.552,26.323 10.516,24.141 10.516,24.141C10.516,24.141 10.558,24.605 11.177,25.563C10.338,22.98 12.536,19.823 13.12,18.719C14.037,18.443 14.094,17.261 14.094,17.261C14.157,15.443 13.339,14.141 12.558,13.344C13.121,14.042 13.298,15.084 13.318,16.042L13.318,16.381C13.276,17.183 13.037,18.261 12.537,18.261L12.537,18.282C12.016,18.261 11.355,18.381 10.777,18.563L9.496,18.881C9.496,18.881 10.178,18.86 10.538,19.183C10.121,19.865 9.199,20.683 8.179,21.162C6.7,21.86 6.257,20.48 7.018,19.599C7.2,19.38 7.398,19.203 7.554,19.063C7.434,18.943 7.377,18.782 7.356,18.584C7.257,18.126 7.299,17.542 7.96,16.605C8.08,16.407 8.236,16.204 8.418,16.006L8.46,15.964L8.46,15.943C8.496,15.88 8.559,15.844 8.595,15.782C9.355,15.006 10.579,14.183 12.48,13.464C14.735,10.141 15.558,9.521 15.558,9.521C15.798,9.281 16.24,8.964 16.376,8.88C15.215,6.864 14.98,4.021 15.277,3.26C15.24,3.3 15.213,3.348 15.199,3.401C15.319,3.141 15.376,3.062 15.496,2.922C15.819,2.563 16.876,2.365 17.277,3.162C17.48,3.584 17.517,4.141 17.517,4.542C16.658,4.506 15.897,5.464 15.897,5.464C15.897,5.464 16.595,5.141 17.48,5.125C17.48,5.125 17.72,5.344 17.996,5.719C17.621,6.464 16.96,8.021 17.439,9.683C17.522,10.006 17.637,10.282 17.783,10.522C17.799,10.543 17.799,10.543 17.799,10.564L17.841,10.6C18.622,11.782 20.039,11.902 20.039,11.902C19.375,11.579 18.829,11.054 18.482,10.402C18.33,10.13 18.21,9.842 18.123,9.543C17.743,8.1 18.3,7.241 18.623,6.684C19.375,5.524 20.724,4.887 22.097,5.043C23.927,5.249 25.325,6.814 25.325,8.655C25.325,8.799 25.317,8.942 25.3,9.085C25.164,10.261 24.461,11.299 23.42,11.861C23.66,12.522 23.399,13.304 23.399,13.304C23.998,14.064 24.04,14.502 24.019,14.924C23.238,14.804 22.498,15.325 22.498,15.325C22.498,15.325 23.977,14.981 24.842,15.742C25.29,16.214 25.678,16.739 25.998,17.305C26.316,17.883 27.8,17.925 27.639,18.946C27.457,19.982 26.316,19.982 24.556,18.826L24.651,18.62ZM18.219,12.474C18.079,12.334 17.889,12.255 17.691,12.255C17.492,12.255 17.302,12.334 17.162,12.474L16.542,13.099C16.245,13.375 16.245,13.859 16.542,14.156L17.219,14.838C17.511,15.128 17.99,15.128 18.282,14.838L18.907,14.218C19.05,14.078 19.13,13.886 19.13,13.687C19.13,13.487 19.05,13.295 18.907,13.155L18.219,12.457L18.219,12.474ZM15.281,12.224C15.094,12.411 15.094,12.719 15.281,12.906C15.469,13.088 15.771,13.088 15.958,12.906C16.146,12.713 16.146,12.411 15.958,12.224C15.77,12.037 15.468,12.036 15.281,12.224ZM16.974,11.891C17.161,11.704 17.161,11.396 16.974,11.209C16.784,11.028 16.482,11.028 16.292,11.209C16.213,11.298 16.169,11.412 16.169,11.531C16.169,11.796 16.387,12.014 16.652,12.014C16.771,12.014 16.885,11.97 16.974,11.891ZM24.151,10.151C24.937,8.641 23.823,7.76 23.052,7.042C21.818,5.881 20.588,5.381 19.187,7.006C17.781,8.6 18.677,10.48 19.958,11.381C21.239,12.303 23.338,11.683 24.14,10.162L24.151,10.151ZM22.026,9.531C21.531,8.937 22.453,7.864 23.036,8.505C24.099,9.693 22.52,10.13 22.026,9.531Z" style="fill:white;fill-rule:nonzero;"/>
        </g>
    </g>
</svg>
