<?xml version="1.0" encoding="UTF-8" standalone="no"?>
<!DOCTYPE svg PUBLIC "-//W3C//DTD SVG 1.1//EN" "http://www.w3.org/Graphics/SVG/1.1/DTD/svg11.dtd">
<svg width="100%" height="100%" viewBox="0 0 48 48" version="1.1" xmlns="http://www.w3.org/2000/svg" xmlns:xlink="http://www.w3.org/1999/xlink" xml:space="preserve" xmlns:serif="http://www.serif.com/" style="fill-rule:evenodd;clip-rule:evenodd;stroke-linejoin:round;stroke-miterlimit:2;">
    <path d="M48,12C48,5.377 42.623,0 36,0L12,0C5.377,0 0,5.377 0,12L0,36C0,42.623 5.377,48 12,48L36,48C42.623,48 48,42.623 48,36L48,12Z" style="fill:rgb(94,194,251);"/>
    <g id="atom-solid" transform="matrix(1.22344,0,0,1.22344,24,24)">
        <g transform="matrix(1,0,0,1,-18,-18)">
            <path d="M24.23,11.71C22.81,10.288 21.282,8.977 19.66,7.79C20.769,7.119 21.933,6.544 23.14,6.07C23.46,5.95 23.76,5.86 24.06,5.77C24.493,6.294 25.138,6.597 25.817,6.597C26.69,6.597 27.49,6.096 27.87,5.31C28.584,5.375 29.258,5.67 29.79,6.15C30.98,7.34 31.01,9.74 29.89,12.73C30.38,13.38 30.83,14.04 31.24,14.73C31.41,14.33 31.59,13.94 31.73,13.55C33.2,9.7 33.01,6.55 31.2,4.77C30.295,3.913 29.115,3.402 27.87,3.33C27.49,2.537 26.685,2.03 25.805,2.03C24.718,2.03 23.774,2.804 23.56,3.87C23.19,3.98 22.82,4.09 22.43,4.24C20.832,4.869 19.301,5.656 17.86,6.59C16.416,5.644 14.882,4.844 13.28,4.2C9.43,2.74 6.28,2.92 4.51,4.73C2.85,6.4 2.58,9.17 3.68,12.59C3.369,12.99 3.2,13.483 3.2,13.99C3.2,15.161 4.103,16.152 5.27,16.26C5.59,16.87 5.94,17.48 6.33,18.08C5.401,19.524 4.621,21.059 4,22.66C2.53,26.5 2.72,29.66 4.53,31.43C5.642,32.469 7.13,33.015 8.65,32.94C10.247,32.888 11.822,32.549 13.3,31.94C14.9,31.309 16.434,30.522 17.88,29.59C19.312,30.543 20.837,31.35 22.43,32C23.601,32.461 24.829,32.764 26.08,32.9C26.459,33.705 27.272,34.221 28.161,34.221C29.393,34.221 30.418,33.231 30.46,32C30.726,31.836 30.974,31.645 31.2,31.43C33.01,29.62 33.2,26.5 31.73,22.66C30.005,18.536 27.453,14.808 24.23,11.71ZM12.57,30.09C9.57,31.24 7.12,31.22 5.92,30.01C4.72,28.8 4.69,26.39 5.85,23.37C6.32,22.163 6.892,20.999 7.56,19.89C8.751,21.506 10.061,23.03 11.48,24.45C11.91,24.88 12.35,25.3 12.79,25.7C13.39,25.393 14,25.043 14.62,24.65C14.04,24.13 13.46,23.65 12.9,23.04C10.649,20.828 8.717,18.314 7.16,15.57C7.572,15.143 7.802,14.573 7.802,13.98C7.802,12.724 6.768,11.69 5.512,11.69C5.508,11.69 5.504,11.69 5.5,11.69C4.75,9.19 4.88,7.2 5.93,6.15C6.677,5.492 7.657,5.16 8.65,5.23C9.999,5.275 11.33,5.559 12.58,6.07C13.787,6.544 14.951,7.119 16.06,7.79C14.438,8.977 12.91,10.288 11.49,11.71C11.05,12.15 10.62,12.61 10.2,13.07C10.501,13.704 10.835,14.321 11.2,14.92C11.74,14.31 12.29,13.71 12.88,13.12C14.419,11.583 16.092,10.188 17.88,8.95C19.649,10.192 21.305,11.588 22.83,13.12C24.367,14.658 25.763,16.332 27,18.12C25.76,19.906 24.364,21.579 22.83,23.12C19.92,26.118 16.429,28.489 12.57,30.09ZM29.79,30L29.63,30.13C29.22,29.782 28.7,29.592 28.162,29.592C27.302,29.592 26.513,30.08 26.13,30.85C25.102,30.718 24.094,30.459 23.13,30.08C21.922,29.61 20.757,29.035 19.65,28.36C21.272,27.173 22.8,25.862 24.22,24.44C25.644,23.025 26.955,21.5 28.14,19.88C28.811,20.989 29.386,22.153 29.86,23.36C31,26.39 31,28.81 29.79,30Z" style="fill:white;fill-rule:nonzero;"/>
            <g transform="matrix(0.98708,-0.160226,0.160226,0.98708,-2.6601,3.11005)">
                <circle cx="17.99" cy="18.07" r="3.3" style="fill:white;"/>
            </g>
        </g>
    </g>
</svg>
