<?xml version="1.0" encoding="UTF-8" standalone="no"?>
<!DOCTYPE svg PUBLIC "-//W3C//DTD SVG 1.1//EN" "http://www.w3.org/Graphics/SVG/1.1/DTD/svg11.dtd">
<svg width="100%" height="100%" viewBox="0 0 48 48" version="1.1" xmlns="http://www.w3.org/2000/svg" xmlns:xlink="http://www.w3.org/1999/xlink" xml:space="preserve" xmlns:serif="http://www.serif.com/" style="fill-rule:evenodd;clip-rule:evenodd;stroke-linecap:round;stroke-linejoin:round;">
    <path d="M48,12C48,5.377 42.623,0 36,0L12,0C5.377,0 0,5.377 0,12L0,36C0,42.623 5.377,48 12,48L36,48C42.623,48 48,42.623 48,36L48,12Z" style="fill:rgb(94,194,251);"/>
    <g id="math-symbols" transform="matrix(2,0,0,2,24,24)">
        <g transform="matrix(1,0,0,1,-12,-12)">
            <g>
                <path d="M3,12L21,12" style="fill:none;fill-rule:nonzero;stroke:white;stroke-width:2px;"/>
                <path d="M12,3L12,21" style="fill:none;fill-rule:nonzero;stroke:white;stroke-width:2px;"/>
                <path d="M16.5,4.5L19.5,7.5" style="fill:none;fill-rule:nonzero;stroke:white;stroke-width:2px;"/>
                <path d="M19.5,4.5L16.5,7.5" style="fill:none;fill-rule:nonzero;stroke:white;stroke-width:2px;"/>
                <path d="M6,4L6,8" style="fill:none;fill-rule:nonzero;stroke:white;stroke-width:2px;"/>
                <path d="M4,6L8,6" style="fill:none;fill-rule:nonzero;stroke:white;stroke-width:2px;"/>
                <path d="M18,16L18.01,16" style="fill:none;fill-rule:nonzero;stroke:white;stroke-width:2px;"/>
                <path d="M18,20L18.01,20" style="fill:none;fill-rule:nonzero;stroke:white;stroke-width:2px;"/>
                <path d="M4,18L8,18" style="fill:none;fill-rule:nonzero;stroke:white;stroke-width:2px;"/>
            </g>
        </g>
    </g>
</svg>
